<?xml version="1.0" encoding="utf-8"?>
<!-- Generator: Adobe Illustrator 23.1.1, SVG Export Plug-In . SVG Version: 6.00 Build 0)  -->
<svg version="1.1" id="Capa_1" xmlns="http://www.w3.org/2000/svg" xmlns:xlink="http://www.w3.org/1999/xlink" x="0px" y="0px"
	 viewBox="0 0 512 512" style="enable-background:new 0 0 512 512;" xml:space="preserve">
<style type="text/css">
	.st0{fill:#32393F;}
	.st1{fill:#D3D3D8;}
	.st2{fill:#BABAC0;}
	.st3{fill:#FF641A;}
	.st4{fill:#575F64;}
</style>
<g>
	<path class="st0" d="M332,233.5c0,24.8-20.2,45-45,45h-90c-8.3,0-15,6.7-15,15v60h75c60,0,90-60,90-120v-15
		C338.7,218.5,332,225.2,332,233.5z"/>
</g>
<path class="st0" d="M347,218.5v15c0,60-30,120-90,120h-30v-75h60c24.8,0,45-20.2,45-45C332,225.2,338.7,218.5,347,218.5z"/>
<g>
	<path class="st1" d="M362,233.5c0,69.2-36.5,135-105,135h-90c-8.3,0-15-6.7-15-15s6.7-15,15-15h90c51.5,0,75-54.4,75-105
		c0-8.3,6.7-15,15-15S362,225.2,362,233.5z"/>
</g>
<path class="st2" d="M362,233.5c0,69.2-36.5,135-105,135h-30v-30h30c51.5,0,75-54.4,75-105c0-8.3,6.7-15,15-15S362,225.2,362,233.5z
	"/>
<g>
	<path class="st0" d="M437,398.5c-41.4,0-75-33.6-75-75s33.6-75,75-75s75,33.6,75,75S478.4,398.5,437,398.5z M437,278.5
		c-24.8,0-45,20.2-45,45s20.2,45,45,45s45-20.2,45-45S461.8,278.5,437,278.5z"/>
</g>
<g>
	<path class="st0" d="M75,398.5c-41.4,0-75-33.6-75-75s33.6-75,75-75s75,33.6,75,75S116.4,398.5,75,398.5z M75,278.5
		c-24.8,0-45,20.2-45,45s20.2,45,45,45s45-20.2,45-45S99.8,278.5,75,278.5z"/>
</g>
<g>
	<path class="st1" d="M423.8,330.6l-64.6-120c-3.9-7.3-1.2-16.4,6.1-20.3c7.3-3.9,16.4-1.2,20.3,6.1l64.6,120
		c3.9,7.3,1.2,16.4-6.1,20.3C436.8,340.6,427.7,337.9,423.8,330.6L423.8,330.6z"/>
</g>
<g>
	<path class="st1" d="M339.7,174.4L323,143.5h-44.8l-25.6,25.6c-5.9,5.9-15.4,5.9-21.2,0s-5.9-15.4,0-21.2l30-30
		c2.8-2.8,6.6-4.4,10.6-4.4h60c5.5,0,10.6,3,13.2,7.9l20.9,38.8c3.9,7.3,1.2,16.4-6.1,20.3C352.7,184.4,343.6,181.7,339.7,174.4
		L339.7,174.4z"/>
</g>
<g>
	<path class="st1" d="M347,188.5c-54.8,0-92.2,15.6-120,28.3l-10,46.7l10,45h60c41.4,0,75-33.6,75-75v-30
		C362,195.2,355.3,188.5,347,188.5z"/>
	<path class="st3" d="M227,216.8v91.7h-92c-8.3,0-15-6.7-15-15v-60c0-5.7,3.2-10.9,8.3-13.4c5.1-2.6,11.1-2,15.7,1.4
		C174.2,244.1,191.5,232.9,227,216.8L227,216.8z"/>
</g>
<g>
	<path class="st3" d="M124.5,244.2c-1.1-1-27.1-25.7-79.5-25.7c-8.3,0-15-6.7-15-15s6.7-15,15-15c65.5,0,99.2,33,100.6,34.4
		L124.5,244.2L124.5,244.2z"/>
</g>
<g>
	<path class="st3" d="M407,218.5h-60c-8.3,0-15-6.7-15-15v-33.6c0-5.9,3.5-11.3,9-13.7l60-26.4c9.9-4.4,21,2.9,21,13.7v60
		C422,211.8,415.3,218.5,407,218.5z"/>
</g>
<g>
	<circle class="st4" cx="75" cy="323.5" r="15"/>
</g>
</svg>
