<?xml version="1.0" encoding="utf-8"?>
<!-- Generator: Adobe Illustrator 23.1.1, SVG Export Plug-In . SVG Version: 6.00 Build 0)  -->
<svg version="1.1" id="Capa_1" xmlns="http://www.w3.org/2000/svg" xmlns:xlink="http://www.w3.org/1999/xlink" x="0px" y="0px"
	 viewBox="0 0 512 512" style="enable-background:new 0 0 512 512;" xml:space="preserve">
<style type="text/css">
	.st0{fill:#CF4737;}
	.st1{fill:#3E8CC7;}
	.st2{fill:#FEC9A3;}
	.st3{fill:#75462E;}
	.st4{fill:#DE4C3C;}
</style>
<path class="st0" d="M69.7,184.7h19.3l0,0V255l0,0H69.7c-8.7,0-15.8-7.1-15.8-15.8v-38.7C53.9,191.8,61,184.7,69.7,184.7z"/>
<path class="st1" d="M238.6,105.5h-35.2c-19.4,0-35.2,15.7-35.2,35.2V299h105.5V140.7C273.8,121.3,258,105.5,238.6,105.5z"/>
<path class="st2" d="M265,17.6l-69.2,8.8c-0.7,2.9-1.1,5.8-1.1,8.8v35.2c0,19.4,15.7,35.2,35.2,35.2S265,89.8,265,70.3V35.2
	C265.3,29.3,265.3,23.4,265,17.6z"/>
<path class="st3" d="M194.6,26.4v35.2l35.2-35.2h26.4c14.6,0,26.4-11.8,26.4-26.4H221C206.4,0,194.6,11.8,194.6,26.4L194.6,26.4"/>
<path class="st0" d="M273.8,299H168.2v87.9l-79.1,35.2l17.6,35.2l83.9-34.9c13.1-5.5,21.6-18.3,21.6-32.5v-39
	c0-9.2,7.4-16.6,16.6-16.6c6,0,11.6,3.2,14.5,8.5l74.4,132.2l35.2-17.6L273.8,299z"/>
<g>
	<path class="st1" d="M84.2,500.3l-30.3-60.6l35.2-17.6l31.2,62.5c2.5,5,2.5,10.8,0,15.7l0,0c-3,6-9.1,9.7-15.7,9.7H100
		C93.3,510,87.2,506.3,84.2,500.3z"/>
	<path class="st1" d="M388.1,483.6L335.3,510l-17.6-35.2l52.8-26.4c9.7-4.9,21.5-0.9,26.4,8.8l0,0l0,0
		C401.7,467,397.8,478.8,388.1,483.6L388.1,483.6z"/>
</g>
<path class="st2" d="M394.3,160.8c-7.2-9.6-20.9-11.6-30.5-4.4c-0.8,0.6-1.6,1.3-2.3,2l-43.8,43.8l-44-52.8v70.3l3.8,5.8
	c14.2,21.3,42.9,27,64.2,12.8c2.5-1.7,4.9-3.6,7.1-5.8l43.4-43.4C400,181.5,400.8,169.4,394.3,160.8z"/>
<g>
	<path class="st3" d="M198.6,96.7h-65.5v17.6h65.5c12.7,0,23,10.3,23,23c0,3.5-0.8,6.9-2.3,10L164,261.2l-22.2,2.6v17.6l25.1-3.6
		c5.8-0.8,10.8-4.5,13.3-9.7l54.8-113c9.8-20.2,1.4-44.5-18.8-54.3C210.8,98.1,204.7,96.7,198.6,96.7z"/>
	<path class="st3" d="M89.1,263.8c0,14.6,11.8,26.4,26.4,26.4h26.4c14.6,0,26.4-11.8,26.4-26.4V255H89.1
		C89.1,255,89.1,263.8,89.1,263.8z"/>
</g>
<path class="st4" d="M166.7,123.1c-3.7-10.5-13.7-17.6-24.9-17.6h-26.4c-14.6,0-26.4,11.8-26.4,26.4V255h79.1V131.9L166.7,123.1z"/>
<rect x="396.8" y="126.9" transform="matrix(0.974 -0.2265 0.2265 0.974 -62.1617 100.2098)" class="st3" width="17.6" height="388.2"/>
<path class="st1" d="M128.7,26.4c-21.9,0-39.6,17.7-39.6,39.6s17.7,39.6,39.6,39.6s39.6-17.7,39.6-39.6S150.5,26.4,128.7,26.4z
	 M128.7,79.1c-7.3,0-13.2-5.9-13.2-13.2s5.9-13.2,13.2-13.2s13.2,5.9,13.2,13.2S135.9,79.1,128.7,79.1z"/>
<path class="st2" d="M228,145.7l-51,31.1l59.8,43c10.1,6.8,12.8,20.4,6.1,30.5c-0.2,0.3-0.4,0.6-0.7,0.9l0,0
	c-7,9.3-20,11.5-29.7,5.1l-73.6-52.2c-9.1-6.1-14.6-16.4-14.6-27.3l0,0c0-11,5.5-21.2,14.6-27.3l64.8-40.3
	c9.7-6.4,22.7-4.2,29.7,5.1l0,0c7.3,9.7,5.2,23.5-4.5,30.8C228.7,145.3,228.3,145.5,228,145.7z"/>
</svg>
