<?xml version="1.0" encoding="iso-8859-1"?>
<!-- Generator: Adobe Illustrator 19.0.0, SVG Export Plug-In . SVG Version: 6.00 Build 0)  -->
<svg version="1.1" id="Capa_1" xmlns="http://www.w3.org/2000/svg" xmlns:xlink="http://www.w3.org/1999/xlink" x="0px" y="0px"
	 viewBox="0 0 512 512" style="enable-background:new 0 0 512 512;" xml:space="preserve">
<polygon style="fill:#D6D6D6;" points="456.033,174.199 430.031,159.119 296.046,390.127 345.509,159.118 316.116,152.824 
	256.618,430.701 301.064,441.388 "/>
<polygon style="fill:#E5E5E5;" points="255.382,430.701 195.884,152.824 166.491,159.118 215.954,390.127 81.969,159.119 
	55.967,174.199 210.937,441.388 "/>
<path style="fill:#0052B7;" d="M256,427.836c-33.812,0-61.32,27.508-61.32,61.32V512h122.64v-22.845
	C317.32,455.343,289.812,427.836,256,427.836z"/>
<path style="fill:#00295C;" d="M256,427.836V512h61.32v-22.845C317.32,455.343,289.812,427.836,256,427.836z"/>
<path style="fill:#FFE3B8;" d="M256,363.71c-23.204,0-42.082,18.878-42.082,42.082s18.878,42.082,42.082,42.082
	s42.082-18.878,42.082-42.082C298.082,382.589,279.204,363.71,256,363.71z"/>
<path style="fill:#FFD391;" d="M256,447.875c23.204,0,42.082-18.878,42.082-42.082S279.204,363.71,256,363.71"/>
<path style="fill:#FC0023;" d="M298.082,405.793c0-23.204-18.878-42.082-42.082-42.082s-42.082,18.878-42.082,42.082"/>
<path style="fill:#0052B7;" d="M213.918,405.793c0-23.204,18.878-42.082,42.082-42.082s42.082,18.878,42.082,42.082H213.918z"/>
<path style="fill:#00295C;" d="M255.408,405.793h42.674c0-23.204-18.878-42.082-42.082-42.082c-0.198,0-0.395,0.012-0.592,0.015
	V405.793z"/>
<path style="fill:#FFDB2D;" d="M470.91,256.501l1.238-9.267c1.29-9.654,1.944-19.459,1.944-29.142
	c0-58.255-22.685-113.023-63.878-154.215S314.255,0,256,0S142.977,22.685,101.786,63.878s-63.878,95.96-63.878,154.215
	c0,9.683,0.654,19.488,1.944,29.142l1.238,9.266h23.624C117.982,211.056,185.904,186.03,256,186.03s138.018,25.026,191.287,70.471
	H470.91z"/>
<path style="fill:#FFB62D;" d="M410.215,63.878C369.023,22.685,314.255,0,256,0c-0.206,0-0.412,0.007-0.618,0.008v186.029
	c0.206,0,0.412-0.007,0.618-0.007c70.097,0,138.018,25.026,191.286,70.471h23.624l1.238-9.267c1.29-9.654,1.944-19.459,1.944-29.142
	C474.093,159.837,451.408,105.07,410.215,63.878z"/>
<path style="fill:#FF9900;" d="M338.253,193.378c0-63.792-22.744-125.248-63.712-172.152L256,0l-18.539,21.225
	c-40.968,46.905-63.712,108.361-63.712,172.152l0,0v4.376c26.539-7.71,54.22-11.724,82.252-11.724
	c28.045,0,55.738,4.017,82.287,11.733L338.253,193.378L338.253,193.378z"/>
<path style="fill:#FF7300;" d="M338.253,193.378c0-63.792-22.744-125.248-63.712-172.152L256,0l-0.618,0.707v185.327
	c0.206,0,0.412-0.005,0.618-0.005c28.045,0,55.738,4.017,82.287,11.733L338.253,193.378z"/>
<g>
</g>
<g>
</g>
<g>
</g>
<g>
</g>
<g>
</g>
<g>
</g>
<g>
</g>
<g>
</g>
<g>
</g>
<g>
</g>
<g>
</g>
<g>
</g>
<g>
</g>
<g>
</g>
<g>
</g>
</svg>
