<svg height="512" viewBox="0 0 512 512" width="512" xmlns="http://www.w3.org/2000/svg"><g id="flat"><rect fill="#fbb540" height="112" rx="56" width="464" x="24" y="264"/><g fill="#d18d28"><path d="m126 328h-101.342a8 8 0 0 1 0-16h103.342z"/><path d="m162 312h198a8 8 0 0 1 0 16h-200z"/><path d="m488 328h-80a8 8 0 0 1 0-16h80a8 8 0 0 1 0 16z"/></g><path d="m256 64a40 40 0 0 1 40 40v8a0 0 0 0 1 0 0h-80a0 0 0 0 1 0 0v-8a40 40 0 0 1 40-40z" fill="#0a9acd"/><path d="m216 176h80v88h-80z" fill="#e82f3e"/><path d="m488 384h-464a8 8 0 0 1 0-16h464a8 8 0 0 1 0 16z" fill="#0bafea"/><path d="m376 416h-40a8 8 0 0 1 0-16h40a8 8 0 0 1 0 16z" fill="#43dcfe"/><path d="m416 416h-8a8 8 0 0 1 0-16h8a8 8 0 0 1 0 16z" fill="#0bafea"/><path d="m288 416h-112a8 8 0 0 1 0-16h112a8 8 0 0 1 0 16z" fill="#0bafea"/><path d="m144 416h-24a8 8 0 0 1 0-16h24a8 8 0 0 1 0 16z" fill="#43dcfe"/><path d="m184 448h-136a8 8 0 0 1 0-16h136a8 8 0 0 1 0 16z" fill="#0bafea"/><path d="m240 448h-16a8 8 0 0 1 0-16h16a8 8 0 0 1 0 16z" fill="#43dcfe"/><path d="m440 448h-152a8 8 0 0 1 0-16h152a8 8 0 0 1 0 16z" fill="#0bafea"/><path d="m488 448h-16a8 8 0 0 1 0-16h16a8 8 0 0 1 0 16z" fill="#43dcfe"/><path d="m248 175h16v89h-16z" fill="#961b20"/><path d="m408 344h-48a8 8 0 0 1 -8-8v-32a8 8 0 0 1 8-8h48a8 8 0 0 1 8 8v32a8 8 0 0 1 -8 8zm-40-16h32v-16h-32z" fill="#0a9acd"/><path d="m172 343.63h-48a8 8 0 0 1 -8-8v-32a8 8 0 0 1 8-8h48a8 8 0 0 1 8 8v32a8 8 0 0 1 -8 8zm-40-16h32v-15h-32z" fill="#0a9acd"/><path d="m256 176a32 32 0 0 1 -32-32v-32h64v32a32 32 0 0 1 -32 32z" fill="#fdc9a6"/><path d="m216 152v24l40 8-16-32z" fill="#961b20"/><path d="m296 152v24l-40 8 16-32z" fill="#961b20"/><path d="m463.839 165.568-37.04 15.101-38.408 32.936-266.689 108.725-50.488 3.305-37.04 15.101 24.161 59.264 37.04-15.101 38.408-32.937 266.688-108.724 50.489-3.305 37.04-15.101z" fill="#fd7422"/><path d="m391.411 221.013 37.04-15.1a8 8 0 1 1 6.04 14.816l-37.04 15.1z" fill="#dc651e"/><path d="m216 176-32 16-24 32v88h32v-72l24-24z" fill="#fdc9a6"/><path d="m296 160 24 8 24 32 40 16-16 24-40-16-32-24z" fill="#fdc9a6"/><path d="m130.386 343.63-36.664 16.025a8 8 0 0 1 -6.04-14.816l36.593-16.2z" fill="#dc651e"/></g></svg>