<svg xmlns="http://www.w3.org/2000/svg" id="color" enable-background="new 0 0 64 64" viewBox="0 0 64 64"><path fill="#f8f4e8" d="M16.17,39.38c0.9-1.48,2.06-2.82,3.42-3.97c0.1,0.87,0.77,1.77,2.41,2.59c2.51,1.25,6.59,1.98,10.64,2.19c-0.15,1.8-0.63,3.99-1.04,5.59c-0.18,0.73,0.48,1.38,1.23,1.22c1.64-0.35,3.97-0.27,5.53-0.15c0.7,0.05,1.22-0.6,1.06-1.28C39.2,44.66,39,43.23,39,41c0-0.33-0.01-0.65-0.02-0.95c2.98-0.3,5.31-0.99,6.02-2.05c0.29-0.43,0.49-0.92,0.63-1.45c0.84,0.87,1.57,1.82,2.19,2.83C49.21,41.64,50,44.24,50,47c0,8.84-8.06,16-18,16s-18-7.16-18-16C14,44.24,14.79,41.65,16.17,39.38z"/><path fill="#c5e0e8" d="M32.64 40.19c-.08.95-.25 2.01-.45 3.03C29.55 42.44 26.61 42 23.5 42c-3.23 0-6.29.48-9.01 1.32.36-1.39.93-2.71 1.68-3.94.9-1.48 2.06-2.82 3.42-3.97.1.87.77 1.77 2.41 2.59C24.51 39.25 28.59 39.98 32.64 40.19zM50 47c0 5.4-3.01 10.17-7.61 13.06C43.42 58.5 44 56.8 44 55c0-3.21-1.84-6.16-4.89-8.42.27-.23.4-.62.31-1.01C39.2 44.66 39 43.23 39 41c0-.33-.01-.65-.02-.95 2.98-.3 5.31-.99 6.02-2.05.29-.43.49-.92.63-1.45.84.87 1.57 1.82 2.19 2.83C49.21 41.64 50 44.24 50 47z"/><path fill="#c03" d="M42,30c2.57-0.86,4.41,3.42,3.63,6.55C45.49,37.08,45.29,37.57,45,38c-0.71,1.06-3.04,1.75-6.02,2.05c-0.12-3.2-0.87-5.1-2.06-6.1c1.98-0.88,3.68-2.3,4.9-4.07L42,30z"/><path fill="#b70034" d="M45.63,36.55C45.49,37.08,45.29,37.57,45,38c-0.71,1.06-3.04,1.75-6.02,2.05c-0.03-0.92-0.12-1.73-0.26-2.44C40.34,37.25,41.53,36.7,42,36c0.29-0.43,0.49-0.92,0.63-1.45c0.37-1.5,0.15-3.26-0.47-4.59C44.65,29.32,46.39,33.49,45.63,36.55z"/><path fill="#f8f4e8" d="M39.34,13.5C42.17,15.69,44,19.13,44,23c0,2.56-0.8,4.93-2.18,6.88c-1.22,1.77-2.92,3.19-4.9,4.07C36.13,33.27,35.13,33,34,33c-2.5,0-3.61,1.39-3.91,1.85c-2.8-0.44-5.27-1.85-7.06-3.88C21.14,28.85,20,26.06,20,23c0-3.87,1.83-7.31,4.66-9.5c0.3,0.04,0.61,0.07,0.93,0.1c4.26,0.41,8.56,0.41,12.82,0C38.73,13.57,39.04,13.54,39.34,13.5z"/><path fill="#c5e0e8" d="M44,23c0,2.56-0.8,4.93-2.18,6.88c-0.52,0.76-1.14,1.45-1.82,2.07v-0.1c0-8.84-6.65-16-14.85-16c-1.04,0-2.05,0.12-3.03,0.34c0.7-1.02,1.56-1.93,2.54-2.69c0.3,0.04,0.61,0.07,0.93,0.1c4.26,0.41,8.56,0.41,12.82,0c0.32-0.03,0.63-0.06,0.93-0.1C42.17,15.69,44,19.13,44,23z"/><path fill="#666" d="M24.33,9H30h4h5.67L39,7c0,0,15.81,4.75,0.34,6.5c-0.3,0.04-0.61,0.07-0.93,0.1c-4.26,0.41-8.56,0.41-12.82,0c-0.32-0.03-0.63-0.06-0.93-0.1C9.19,11.75,25,7,25,7L24.33,9z"/><path fill="#4d4d4d" d="M39.34,13.5c-0.3,0.04-0.61,0.07-0.93,0.1c-4.26,0.41-8.56,0.41-12.82,0c-0.32-0.03-0.63-0.06-0.93-0.1c-4.25-0.48-6.14-1.19-6.64-1.96C19.89,11.84,21.9,12,24,12c5.69,0,10.76-1.17,14.05-3h1.62l-0.28-0.85c0.32-0.23,0.61-0.48,0.88-0.73C43.69,8.62,52.01,12.07,39.34,13.5z"/><polygon fill="#f8f4e8" points="39.67 9 34 9 34 5 38.33 5 39 7"/><path fill="#c03" d="M39.42,45.57c0.16,0.68-0.36,1.33-1.06,1.28c-1.56-0.12-3.89-0.2-5.53,0.15c-0.75,0.16-1.41-0.49-1.23-1.22c0.41-1.6,0.89-3.79,1.04-5.59c0.13-1.58,0.01-2.86-0.64-3.19c-2-1-2,0-2-2c0,0,0.03-0.06,0.09-0.15C30.39,34.39,31.5,33,34,33c1.13,0,2.13,0.27,2.92,0.95c1.19,1,1.94,2.9,2.06,6.1C38.99,40.35,39,40.67,39,41C39,43.23,39.2,44.66,39.42,45.57z"/><path fill="#b70034" d="M38.36,46.85c-1.56-0.12-3.89-0.2-5.53,0.15c-0.75,0.16-1.41-0.49-1.23-1.22c0.16-0.61,0.32-1.3,0.48-2.03c0.83,0.01,1.62,0.05,2.28,0.1c0.7,0.05,1.22-0.6,1.06-1.28C35.2,41.66,35,40.23,35,38c0-0.33-0.01-0.65-0.02-0.95c-0.06-1.69-0.3-3.02-0.7-4.04c1.02,0.04,1.92,0.32,2.64,0.94c1.19,1,1.94,2.9,2.06,6.1C38.99,40.35,39,40.67,39,41c0,2.23,0.2,3.66,0.42,4.57C39.58,46.25,39.06,46.9,38.36,46.85z"/><path fill="#666" d="M37.648,2.949L38.33,5H34h-4h-4.33l0.682-2.051C26.739,1.785,27.827,1,29.054,1h5.892C36.173,1,37.261,1.785,37.648,2.949z"/><circle cx="37" cy="19" r="1" fill="#666"/><rect width="4" height="4" x="30" y="5" fill="#ffc634"/><path fill="#ff8939" d="M33.32,24.4c0.01,0.12,0.02,0.24,0.01,0.36c-0.07,1.34-1.49,2.19-2.76,1.76L26,25l4.3-2.15C31.57,22.21,33.19,22.98,33.32,24.4z"/><path fill="#c03" d="M32,37c0.65,0.33,0.77,1.61,0.64,3.19C28.59,39.98,24.51,39.25,22,38c-1.64-0.82-2.31-1.72-2.41-2.59C19.31,33.11,23,31,23,31l0.03-0.03c1.79,2.03,4.26,3.44,7.06,3.88C30.03,34.94,30,35,30,35C30,37,30,36,32,37z"/><path fill="#b70034" d="M32.64,40.19C28.59,39.98,24.51,39.25,22,38c-1.64-0.82-2.31-1.72-2.41-2.59c-0.19-1.56,1.45-3.04,2.52-3.82c-0.37,0.57-0.6,1.19-0.52,1.82c0.1,0.87,0.77,1.77,2.41,2.59c2.09,1.04,5.25,1.72,8.59,2.03C32.71,38.6,32.71,39.35,32.64,40.19z"/><circle cx="32" cy="50" r="1" fill="#666"/><circle cx="32" cy="54" r="1" fill="#666"/><circle cx="32" cy="58" r="1" fill="#666"/><polygon fill="#f8f4e8" points="30 5 30 9 24.33 9 25 7 25.67 5"/><circle cx="27" cy="19" r="1" fill="#666"/><path fill="#c5e0e8" d="M35,27c-0.552,0-1,0.448-1,1c0,0.434-1.94,0.997-4,1c-0.552,0.001-1,0.449-0.999,1c0,0.552,0.447,1,1,1c1.002,0,6-0.145,6-3C36,27.448,35.552,27,35,27z"/><path fill="#a67c52" d="M18.514,42.857c0.474-0.284,0.628-0.897,0.344-1.371c-0.027-0.045-0.684-1.137-1.894-2.714c-1.336-1.746-3.521-4.301-6.34-6.553c-0.113-0.09-0.213-0.186-0.323-0.278c0.636-0.983,1.45-2.85,0.648-5.258c-0.174-0.523-0.74-0.808-1.265-0.632c-0.524,0.175-0.807,0.741-0.632,1.265c0.47,1.409,0.122,2.529-0.243,3.221c-0.555-0.6-1.038-1.222-1.443-1.862C6.042,26.586,6,25.007,6,25c0-0.552-0.448-1-1-1s-1,0.448-1,1c0,0.056,0.018,0.968,0.494,2.322l-3.122-1.25c-0.512-0.208-1.095,0.043-1.3,0.557c-0.206,0.513,0.044,1.095,0.557,1.3l5.245,2.1c0.896,1.341,2.065,2.605,3.502,3.753c0.09,0.072,0.174,0.146,0.262,0.219H7c-0.552,0-1,0.448-1,1s0.448,1,1,1h4.859c1.48,1.459,2.677,2.891,3.517,3.989c1.135,1.478,1.76,2.515,1.766,2.525C17.33,42.827,17.661,43,18.001,43C18.176,43,18.353,42.954,18.514,42.857z"/><path fill="#94a8ae" d="M20.473,41.547c-0.004,0-0.009,0-0.013,0c-0.542,0-0.986,0.438-1,0.981c-0.012,0.461-0.195,1.012-1,1.012c-0.552,0-1,0.448-1,1s0.448,1,1,1c2.201,0,3-1.794,3-3C21.46,41.993,21.02,41.554,20.473,41.547z"/><path fill="#a67c52" d="M63.932,26.637c-0.2-0.515-0.781-0.773-1.294-0.569l-3.117,1.214C59.982,25.95,60,25.055,60,25c0-0.549-0.442-0.991-0.992-0.996c-0.003,0-0.005,0-0.008,0c-0.545,0-0.991,0.441-1,0.987c0,0.015-0.041,1.558-1.319,3.61c-0.414,0.666-0.914,1.312-1.489,1.934c-0.366-0.691-0.713-1.811-0.243-3.219c0.175-0.524-0.108-1.09-0.632-1.265c-0.525-0.176-1.09,0.109-1.265,0.632c-0.802,2.408,0.011,4.274,0.647,5.257c-0.11,0.092-0.21,0.187-0.323,0.278c-2.242,1.792-4.378,3.996-6.352,6.556c-1.2,1.576-1.854,2.667-1.882,2.712c-0.284,0.474-0.129,1.087,0.344,1.371C45.647,42.954,45.824,43,45.999,43c0.34,0,0.671-0.173,0.859-0.486c0.006-0.01,0.631-1.048,1.754-2.523c1.112-1.443,2.314-2.778,3.546-3.991H57c0.552,0,1-0.448,1-1s-0.448-1-1-1h-2.631c0.085-0.07,0.169-0.15,0.255-0.218c1.464-1.167,2.65-2.457,3.553-3.831l5.186-2.019C63.877,27.731,64.132,27.152,63.932,26.637z"/><path fill="#94a8ae" d="M45.54,43.54c-0.804,0-0.988-0.549-1-1.01c-0.005-0.548-0.451-0.99-1-0.99c-0.552,0-1,0.448-1,1c0,1.206,0.799,3,3,3c0.552,0,1-0.448,1-1S46.092,43.54,45.54,43.54z"/><path fill="#fff" d="M22.67 57.05c0 0-6.816-3.636-5.719-7.674S30.183 60.618 22.67 57.05zM27.317 31.374c0 0-3.888-2.074-3.263-4.378C24.68 24.693 31.603 33.409 27.317 31.374z"/><ellipse cx="36.94" cy="43.055" fill="#ea0043" rx=".737" ry="1.346"/></svg>